<svg width="21" height="23" viewBox="0 0 21 23" fill="none" xmlns="http://www.w3.org/2000/svg">
<path d="M14.625 16.875V13.5H6.75V9H14.625V5.625L20.25 11.25L14.625 16.875ZM12.375 0C12.9717 0 13.544 0.237053 13.966 0.65901C14.3879 1.08097 14.625 1.65326 14.625 2.25V4.5H12.375V2.25H2.25V20.25H12.375V18H14.625V20.25C14.625 20.8467 14.3879 21.419 13.966 21.841C13.544 22.2629 12.9717 22.5 12.375 22.5H2.25C1.65326 22.5 1.08097 22.2629 0.65901 21.841C0.237053 21.419 0 20.8467 0 20.25V2.25C0 1.65326 0.237053 1.08097 0.65901 0.65901C1.08097 0.237053 1.65326 0 2.25 0H12.375Z" fill="#C4C4C4"/>
</svg>
