<svg width="25" height="25" viewBox="0 0 25 25" fill="none" xmlns="http://www.w3.org/2000/svg">
<path d="M10.0044 0C4.4796 0 0 4.33507 0 9.68153C0 15.028 4.4796 19.3631 10.0044 19.3631C12.1288 19.3631 14.0991 18.7218 15.7186 17.6295L23.2843 24.9498C23.3526 25.0159 23.4632 25.0159 23.5279 24.9544L24.9533 23.5751C25.0192 23.5113 25.0133 23.402 24.9486 23.3393L17.4817 16.1134C19.0542 14.4038 20.0087 12.1509 20.0087 9.6815C20.0088 4.33507 15.5292 0 10.0044 0ZM10.0044 18.2241C5.12932 18.2241 1.17698 14.3993 1.17698 9.68153C1.17698 4.96379 5.12928 1.13903 10.0044 1.13903C14.8795 1.13903 18.8317 4.96379 18.8317 9.68153C18.8317 14.3993 14.8794 18.2241 10.0044 18.2241Z" fill="#B3B7BE"/>
</svg>
