<svg width="23" height="23" viewBox="0 0 23 23" fill="none" xmlns="http://www.w3.org/2000/svg">
<path d="M22.6867 8.6758C22.7296 8.51329 22.7069 8.34066 22.6235 8.19508L19.6904 3.12143C19.5147 2.8194 19.128 2.71526 18.8255 2.89042L16.3652 4.3106C15.9125 3.98633 15.4283 3.70629 14.9177 3.47477V0.632879C14.9177 0.28333 14.6344 0 14.2843 0H8.42212C8.07206 0 7.78924 0.28333 7.78924 0.632879V3.47528C7.3113 3.69289 6.85433 3.95373 6.42289 4.25525L3.9768 2.80549C3.83223 2.72007 3.66036 2.6958 3.49759 2.737C3.33508 2.77896 3.19505 2.88309 3.10962 3.02766L0.121141 8.06896C0.0357124 8.21302 0.0109432 8.3859 0.0526465 8.54867C0.0946025 8.71119 0.198734 8.8507 0.343306 8.93613L2.7904 10.3854C2.75148 10.7152 2.73253 11.0231 2.73253 11.3193C2.73253 11.5819 2.74794 11.8544 2.78029 12.1556L0.316515 13.5791C0.170932 13.6635 0.0647783 13.8018 0.0218113 13.9635C-0.0221667 14.1255 0.00108601 14.2987 0.0849981 14.4437L3.01687 19.5179C3.19151 19.8204 3.57923 19.9246 3.88177 19.7489L6.34251 18.3282C6.79569 18.653 7.28046 18.9325 7.78949 19.1641V22.0059C7.78949 22.356 8.07232 22.6388 8.42237 22.6388H14.2843C14.6344 22.6388 14.9177 22.356 14.9177 22.0059V19.1643C15.3952 18.9472 15.8521 18.6854 16.2831 18.3838L18.7307 19.8336C19.0309 20.0118 19.4199 19.9122 19.5981 19.6114L22.5861 14.5704C22.671 14.4258 22.6958 14.2529 22.6546 14.0907C22.6126 13.9281 22.5085 13.7886 22.3634 13.7032L19.9178 12.2539C19.9573 11.9218 19.976 11.6175 19.976 11.32C19.976 11.0544 19.96 10.7784 19.9282 10.4827L22.3915 9.06048C22.5365 8.97682 22.6432 8.83807 22.6867 8.6758ZM14.7438 11.3193C14.7438 13.1886 13.2228 14.7096 11.353 14.7096C9.48366 14.7096 7.96313 13.1886 7.96313 11.3193C7.96313 9.45073 9.48366 7.92995 11.353 7.92995C13.2231 7.92995 14.7438 9.45073 14.7438 11.3193Z" fill="#C4C4C4"/>
</svg>
